<?xml version="1.0" encoding="utf-8"?>
<!-- Generator: Adobe Illustrator 15.0.0, SVG Export Plug-In . SVG Version: 6.00 Build 0)  -->
<!DOCTYPE svg PUBLIC "-//W3C//DTD SVG 1.1//EN" "http://www.w3.org/Graphics/SVG/1.1/DTD/svg11.dtd">
<svg version="1.1" id="Ebene_1" xmlns="http://www.w3.org/2000/svg" xmlns:xlink="http://www.w3.org/1999/xlink" x="0px" y="0px"
	 width="75px" height="75px" viewBox="0 0 75 75" enable-background="new 0 0 75 75" xml:space="preserve">
<path fill-rule="evenodd" clip-rule="evenodd" fill="#44230D" d="M58.336,74.095c-4.957,1.437-15.764,0.903-21.654,1.058
	c-5.939,0.154-19.369,0.496-24.324-3.063c-14.35-10.308-12.25-25.807-12.25-25.807s15.794,8.567,39.255,7.47
	C60.396,52.769,75,49.717,75,49.717S68.33,71.197,58.336,74.095z"/>
<rect x="31" y="3" fill-rule="evenodd" clip-rule="evenodd" fill="#44230D" width="1" height="53"/>
<rect x="4" y="44" fill-rule="evenodd" clip-rule="evenodd" fill="#44230D" width="28" height="1"/>
<rect x="31" y="49" fill-rule="evenodd" clip-rule="evenodd" fill="#44230D" width="36" height="1"/>
<path fill-rule="evenodd" clip-rule="evenodd" fill="#E8D3BF" d="M30.992,44.057c0,0-12.962-9.118-25.492,0
	c0,0,1.512-15.958,25.492-26.113C30.992,17.944,22.134,27.168,30.992,44.057z"/>
<path fill-rule="evenodd" clip-rule="evenodd" fill="#E8D3BF" d="M66.344,49.021c-18.163-11.436-34.344,0-34.344,0
	c7.484-18.935,0-43.527,0-43.527C61.941,10.173,66.344,49.021,66.344,49.021z"/>
<g>
	<g>
		<path fill="#F49712" d="M26.31,56.376c-0.258,0.077-0.423,0.313-0.423,0.569c0,0.058,0.008,0.115,0.027,0.175
			c0,0,2.392,7.866,2.793,9.176c-1.098,0-3.833-0.001-3.833-0.001c-0.328,0-0.596,0.268-0.596,0.596
			c0,0.329,0.269,0.596,0.596,0.596l4.635,0.002c0.188,0,0.367-0.09,0.479-0.242c0.113-0.151,0.145-0.346,0.089-0.527l-3.027-9.948
			C26.958,56.457,26.622,56.28,26.31,56.376z"/>
	</g>
	<path fill="#F49712" d="M21.886,59.944c0,0.43,0.349,0.778,0.779,0.778c0.433,0,0.781-0.349,0.781-0.778
		c0-0.431-0.349-0.781-0.781-0.781C22.234,59.163,21.886,59.514,21.886,59.944z"/>
	<g>
		<path fill="#F49712" d="M37.191,56.376c0.258,0.077,0.421,0.313,0.421,0.569c0,0.058-0.008,0.115-0.024,0.175
			c0,0-2.395,7.866-2.792,9.176c1.099,0,3.83-0.001,3.83-0.001c0.33,0,0.595,0.268,0.595,0.596c0,0.329-0.265,0.596-0.595,0.596
			l-4.634,0.002c-0.189,0-0.367-0.09-0.479-0.242c-0.112-0.151-0.146-0.346-0.092-0.527l3.027-9.948
			C36.546,56.457,36.877,56.28,37.191,56.376z"/>
	</g>
	<path fill="#F49712" d="M31.002,59.944c0,0.43,0.351,0.778,0.779,0.778c0.433,0,0.783-0.349,0.783-0.778
		c0-0.431-0.351-0.781-0.783-0.781C31.353,59.163,31.002,59.514,31.002,59.944z"/>
	<g>
		<path fill="#F49712" d="M46.309,56.376c0.256,0.077,0.423,0.313,0.423,0.569c0,0.058-0.01,0.115-0.026,0.175
			c0,0-2.396,7.866-2.793,9.176c1.098,0,3.83-0.001,3.83-0.001c0.33,0,0.598,0.268,0.598,0.596c0,0.329-0.268,0.596-0.597,0.596
			l-4.634,0.002c-0.19,0-0.368-0.09-0.479-0.242c-0.112-0.151-0.148-0.346-0.091-0.527l3.025-9.948
			C45.661,56.457,45.995,56.28,46.309,56.376z"/>
	</g>
	<path fill="#F49712" d="M40.117,59.944c0,0.43,0.351,0.778,0.783,0.778c0.428,0,0.778-0.349,0.778-0.778
		c0-0.431-0.351-0.781-0.778-0.781C40.468,59.163,40.117,59.514,40.117,59.944z"/>
	<path fill="#F49712" d="M49.235,59.944c0,0.43,0.352,0.778,0.781,0.778c0.431,0,0.781-0.349,0.781-0.778
		c0-0.431-0.351-0.781-0.781-0.781C49.587,59.163,49.235,59.514,49.235,59.944z"/>
	<path fill="#F49712" d="M35.64,68.937c-0.248,0-0.453,0.189-0.474,0.435c-0.07,0.758,0.161,1.487,0.634,2.001
		c0.384,0.418,0.876,0.647,1.389,0.647c0.511,0,1.005-0.227,1.387-0.642c0.469-0.51,0.7-1.241,0.636-2.005
		c-0.021-0.246-0.227-0.437-0.472-0.437H35.64z M38.25,69.873c0.008,0.982-0.754,1.217-1.062,1.217
		c-0.3-0.003-1.058-0.227-1.063-1.217C36.688,69.873,37.687,69.873,38.25,69.873z"/>
	<path fill="#F49712" d="M24.832,68.917c-0.305,0-0.553,0.248-0.553,0.554c0,0.304,0.248,0.551,0.553,0.551h2.465
		c0.305,0,0.553-0.247,0.553-0.551c0-0.306-0.248-0.554-0.553-0.554H24.832z"/>
	<path fill="#F49712" d="M24.832,70.586c-0.305,0-0.553,0.248-0.553,0.554c0,0.305,0.248,0.551,0.553,0.551h2.465
		c0.305,0,0.553-0.246,0.553-0.551c0-0.306-0.248-0.554-0.553-0.554H24.832z"/>
	<g>
		<path fill="#F49712" d="M47.566,69.774c-0.005,0.001-0.456,0.194-1.024,0.194h-0.28c-0.587,0-1.041-0.194-1.044-0.195
			c-0.281-0.122-0.604,0.005-0.729,0.283c-0.121,0.277,0.003,0.602,0.28,0.726c0.066,0.028,0.676,0.292,1.492,0.292h0.28
			c0.799,0,1.405-0.264,1.473-0.292c0.276-0.124,0.401-0.451,0.276-0.728C48.169,69.775,47.843,69.651,47.566,69.774z"/>
	</g>
</g>
</svg>
